<svg xmlns="http://www.w3.org/2000/svg" viewBox="0 0 1200 800" role="img" aria-label="Attendance preview">
  <defs>
    <linearGradient id="g" x1="0" x2="0" y1="0" y2="1">
      <stop offset="0" stop-color="#FFE24A"/>
      <stop offset="1" stop-color="#F7C81E"/>
    </linearGradient>
    <filter id="shadow" x="-20%" y="-20%" width="140%" height="140%">
      <feDropShadow dx="0" dy="8" stdDeviation="12" flood-color="#000" flood-opacity="0.18"/>
    </filter>
  </defs>

  <rect width="1200" height="800" fill="#ffffff"/>

  <!-- Speech bubble -->
  <g filter="url(#shadow)">
    <path
      d="M210 180
         H910
         C970 180 1018 228 1018 288
         V420
         C1018 480 970 528 910 528
         H520
         L460 612
         L470 528
         H210
         C150 528 102 480 102 420
         V288
         C102 228 150 180 210 180
         Z"
      fill="url(#g)"/>

    <!-- Black border -->
    <path
      d="M210 180
         H910
         C970 180 1018 228 1018 288
         V420
         C1018 480 970 528 910 528
         H520
         L460 612
         L470 528
         H210
         C150 528 102 480 102 420
         V288
         C102 228 150 180 210 180
         Z"
      fill="none" stroke="#0B0B0B" stroke-width="18" stroke-linejoin="round"/>

    <!-- Inner white outline like your sample -->
    <path
      d="M210 200
         H910
         C958 200 998 240 998 288
         V420
         C998 468 958 508 910 508
         H510
         L470 566
         L476 508
         H210
         C162 508 122 468 122 420
         V288
         C122 240 162 200 210 200
         Z"
      fill="none" stroke="#ffffff" stroke-width="18" stroke-linejoin="round" opacity="0.95"/>
  </g>

  <!-- Text -->
  <text
    x="560" y="392"
    text-anchor="middle"
    font-family="Impact, Haettenschweiler, 'Arial Narrow Bold', 'Franklin Gothic Condensed', 'Arial Black', sans-serif"
    font-size="170"
    fill="#0B0B0B"
    letter-spacing="6"
  >ATTENDANCE</text>
</svg>
